<?xml version="1.0" encoding="UTF-8" standalone="no"?>
<svg
   xmlns:dc="http://purl.org/dc/elements/1.1/"
   xmlns:cc="http://creativecommons.org/ns#"
   xmlns:rdf="http://www.w3.org/1999/02/22-rdf-syntax-ns#"
   xmlns:svg="http://www.w3.org/2000/svg"
   xmlns="http://www.w3.org/2000/svg"
   xmlns:sodipodi="http://sodipodi.sourceforge.net/DTD/sodipodi-0.dtd"
   xmlns:inkscape="http://www.inkscape.org/namespaces/inkscape"
   viewBox="0 0 4096 4096"
   version="1.1"
   id="svg10"
   sodipodi:docname="bobs-logo.svg"
   width="4096"
   height="4096"
   inkscape:version="0.92.1 r15371"
   inkscape:export-filename="C:\Users\alex\sites\bobs-logo-0.png"
   inkscape:export-xdpi="96"
   inkscape:export-ydpi="96">
  <metadata
     id="metadata16">
    <rdf:RDF>
      <cc:Work
         rdf:about="">
        <dc:format>image/svg+xml</dc:format>
        <dc:type
           rdf:resource="http://purl.org/dc/dcmitype/StillImage" />
        <dc:title></dc:title>
      </cc:Work>
    </rdf:RDF>
  </metadata>
  <defs
     id="defs14" />
  <sodipodi:namedview
     pagecolor="#ffffff"
     bordercolor="#666666"
     borderopacity="1"
     objecttolerance="10"
     gridtolerance="10"
     guidetolerance="10"
     inkscape:pageopacity="0"
     inkscape:pageshadow="2"
     inkscape:window-width="1600"
     inkscape:window-height="838"
     id="namedview12"
     showgrid="false"
     inkscape:zoom="0.089597902"
     inkscape:cx="3000.2513"
     inkscape:cy="1651.2688"
     inkscape:window-x="-8"
     inkscape:window-y="-8"
     inkscape:window-maximized="1"
     inkscape:current-layer="svg10" />
  <g
     data-name="Camada 1"
     id="g8"
     transform="matrix(10.58874,0,0,10.58874,527.03339,1286.3519)"
     inkscape:export-filename="C:\Users\alex\sites\bobs-logo-4.png"
     inkscape:export-xdpi="12.923148"
     inkscape:export-ydpi="12.923148">
    <path
       d="m 116.08,142.35 c -18.89,0 -34.75,-8.28 -42.78,-22 -2.73,1 -5.65,2 -8.73,2.86 -14.49,4.08 -32.84,6.25 -54.55,6.47 L 4.22,129.73 3.33,5.9 8.21,5.09 c 5.62,-0.94 17.61,-1.43 26.53,-1.43 51.75,0 62.61,17.94 62.61,33 a 28.64,28.64 0 0 1 -7,18.75 c 0.79,0.6 1.55,1.23 2.28,1.87 a 61.35,61.35 0 0 1 29.35,-7 54.89,54.89 0 0 1 15.48,2.12 V 1.51 h 45.78 V 35 a 66.14,66.14 0 0 1 12,-1.14 50.6,50.6 0 0 1 8.94,0.75 18.84,18.84 0 0 1 17.21,-26.91 18.38,18.38 0 0 1 18.44,18.71 19.42,19.42 0 0 1 -1.06,6.46 77.32,77.32 0 0 1 20,-2.54 c 4.76,0 13.95,0.18 18.18,0.88 L 281.8,32 v 35.94 l -7.36,-0.56 c 6.8,7.4 9.51,15.16 9.51,21.25 0,11.51 -5.86,30.83 -45.11,30.83 -4.88,0 -14.26,-0.19 -18.46,-0.89 l -4.83,-0.81 V 97.65 a 69.47,69.47 0 0 1 -29.83,19.35 70.47,70.47 0 0 1 -22.51,3.78 c -1.06,0 -2.1,0 -3.11,-0.13 -9.35,13.49 -25.84,21.7 -44.02,21.7 z"
       id="path2"
       inkscape:connector-curvature="0"
       style="fill:#ffffff" />
    <path
       d="m 255.05,60.08 21,1.62 V 36.91 a 146.53,146.53 0 0 0 -17.24,-0.8 c -8.88,0 -28.54,1.62 -35.82,13.74 0,-11.32 11.05,-12.39 11.05,-23.44 A 12.54,12.54 0 0 0 221.38,13.48 c -7.27,0 -13.2,5.39 -13.2,12.93 0,10.78 11,12.4 11,23.17 -5.11,-7.28 -14.27,-10 -24,-10 a 63.14,63.14 0 0 0 -17.77,2.69 v -35 H 143.28 V 60.91 A 45.67,45.67 0 0 0 122,56 c -11.79,0 -22.17,3.09 -30.27,8.54 a 33.24,33.24 0 0 0 -10.95,-8.27 28.31,28.31 0 0 0 2.85,-2.26 23,23 0 0 0 7.93,-17.4 C 91.56,11.3 51.7,9.41 34.73,9.41 25.31,9.45 14,10 9.15,10.79 L 10,123.91 c 13.07,-0.13 34.54,-1 53,-6.25 a 88.54,88.54 0 0 0 13.08,-4.72 c 5.84,14.48 21.12,23.63 40,23.63 18.2,0 33.52,-8.76 41.14,-22.17 a 27.19,27.19 0 0 0 6,0.63 65.14,65.14 0 0 0 20.67,-3.49 c 19.66,-6.61 36.44,-22.15 38.86,-42 C 226,76 232.7,82.44 243.2,87 l -21.81,-0.27 v 26.12 c 3.23,0.54 11.31,0.81 17.5,0.81 11.85,0 39.33,-1.62 39.33,-25.05 0,-8.33 -6.47,-19.91 -23.17,-28.53 z M 44.17,40.1 c 0,-3.77 2.43,-5.1 4.83,-5.1 3.24,0 5.66,1.35 5.66,5.12 v 6.53 c 0,3.77 -2.42,5.12 -5.66,5.12 -2.41,0 -4.84,-1.35 -4.84,-5.12 z m 10.77,46.65 c 0,3.77 -2.42,5.11 -5.66,5.11 -2.68,0 -5.11,-1.34 -5.11,-5.11 v -10 c 0,-3.77 2.43,-5.12 5.11,-5.12 3.24,0 5.66,1.35 5.66,5.12 z m 68.41,15.89 c 0,3.77 -2.42,5.11 -5.65,5.11 -2.7,0 -5.12,-1.34 -5.12,-5.11 V 90 c 0,-3.78 2.42,-5.12 5.12,-5.12 3.23,0 5.65,1.34 5.65,5.12 z m 64.91,-23.43 c 0,3.25 -1.81,4.7 -4.38,5 a 10.6,10.6 0 0 1 -1.28,0.08 c -2.68,0 -5.11,-1.35 -5.11,-5.11 V 68.43 c 0,-3.77 2.43,-5.12 5.11,-5.12 a 8.87,8.87 0 0 1 1.28,0.09 c 2.57,0.33 4.38,1.78 4.38,5 z"
       id="path4"
       inkscape:connector-curvature="0"
       style="fill:#c12a21" />
    <path
       d="m 157.22,114.4 a 39.91,39.91 0 0 0 5.19,-19.84 c 0,-15.69 -7.32,-27.47 -19.13,-33.65 v 32 c 0,11.77 4.54,19.34 13.94,21.49 z M 98.31,83.51 c 0,-7.93 -2.52,-14.15 -6.57,-18.93 -11.34,7.63 -18.22,19.9 -18.22,34.83 a 36,36 0 0 0 2.56,13.53 C 89,107 98.31,97.73 98.31,83.51 Z"
       style="opacity:0.5;mix-blend-mode:multiply;fill:#893529"
       id="path6"
       inkscape:connector-curvature="0" />
  </g>
</svg>
